<?xml version="1.0" standalone="no"?><!DOCTYPE svg PUBLIC "-//W3C//DTD SVG 1.1//EN" "http://www.w3.org/Graphics/SVG/1.1/DTD/svg11.dtd"><svg t="1564403793476" class="icon" viewBox="0 0 1024 1024" version="1.1" xmlns="http://www.w3.org/2000/svg" p-id="11735" xmlns:xlink="http://www.w3.org/1999/xlink" width="32" height="32"><defs><style type="text/css"></style></defs><path d="M510.567403 647.94324c-37.963825 0-68.764665 30.800839-68.764665 68.764665 0 37.963825 30.800839 68.764665 68.764665 68.764665s68.764665-30.800839 68.764665-68.764665C579.332068 678.744079 548.531228 647.94324 510.567403 647.94324L510.567403 647.94324zM510.567403 63.852903c-246.7137 0-446.663336 199.949635-446.663336 446.663336s199.949635 446.663336 446.663336 446.663336S957.230738 757.229939 957.230738 510.516239 757.281103 63.852903 510.567403 63.852903L510.567403 63.852903zM510.567403 888.517238c-208.749875 0-378.000999-169.251124-378.000999-378.000999s169.251124-378.000999 378.000999-378.000999 378.000999 169.251124 378.000999 378.000999S719.317278 888.517238 510.567403 888.517238L510.567403 888.517238zM510.567403 235.662236c-37.963825 0-68.764665 30.800839-68.764665 68.764665l0 206.191666c0 37.963825 30.800839 68.764665 68.764665 68.764665s68.764665-30.800839 68.764665-68.764665L579.332068 304.324573C579.332068 266.360747 548.531228 235.662236 510.567403 235.662236L510.567403 235.662236z" p-id="11736" fill="#db8c3f"></path></svg>